<svg width="44" height="30" viewBox="0 0 44 30" fill="none" xmlns="http://www.w3.org/2000/svg">
<g clip-path="url(#clip0_1555_22858)">
<path d="M14.5625 15C14.5625 15.2818 14.4506 15.552 14.2513 15.7513C14.052 15.9506 13.7818 16.0625 13.5 16.0625C13.2182 16.0625 12.948 15.9506 12.7487 15.7513C12.5494 15.552 12.4375 15.2818 12.4375 15C12.4375 14.7182 12.5494 14.448 12.7487 14.2487C12.948 14.0494 13.2182 13.9375 13.5 13.9375C13.7818 13.9375 14.052 14.0494 14.2513 14.2487C14.4506 14.448 14.5625 14.7182 14.5625 15ZM23.0625 15C23.0625 15.2818 22.9506 15.552 22.7513 15.7513C22.552 15.9506 22.2818 16.0625 22 16.0625C21.7182 16.0625 21.448 15.9506 21.2487 15.7513C21.0494 15.552 20.9375 15.2818 20.9375 15C20.9375 14.7182 21.0494 14.448 21.2487 14.2487C21.448 14.0494 21.7182 13.9375 22 13.9375C22.2818 13.9375 22.552 14.0494 22.7513 14.2487C22.9506 14.448 23.0625 14.7182 23.0625 15ZM31.5625 15C31.5625 15.2818 31.4506 15.552 31.2513 15.7513C31.052 15.9506 30.7818 16.0625 30.5 16.0625C30.2182 16.0625 29.948 15.9506 29.7487 15.7513C29.5494 15.552 29.4375 15.2818 29.4375 15C29.4375 14.7182 29.5494 14.448 29.7487 14.2487C29.948 14.0494 30.2182 13.9375 30.5 13.9375C30.7818 13.9375 31.052 14.0494 31.2513 14.2487C31.4506 14.448 31.5625 14.7182 31.5625 15Z" fill="#494C51" stroke="#494C51" stroke-width="1.5" stroke-linecap="round" stroke-linejoin="round"/>
</g>
<defs>
<clipPath id="clip0_1555_22858">
<rect width="44" height="30" fill="white"/>
</clipPath>
</defs>
</svg>
