<svg width="15" height="16" viewBox="0 0 15 16" fill="none" xmlns="http://www.w3.org/2000/svg">
<path d="M7.3921 15.4885C11.4742 15.4885 14.7899 12.1341 14.7899 7.99711C14.7899 3.86018 11.4742 0.5 7.3921 0.5C3.30999 0.5 0 3.86018 0 7.99711C0 12.1341 3.30999 15.4885 7.3921 15.4885ZM7.3921 14.4183C3.88909 14.4183 1.05602 11.5472 1.05602 7.99711C1.05602 4.44706 3.88909 1.57595 7.3921 1.57595C10.8951 1.57595 13.7282 4.44706 13.7282 7.99711C13.7282 11.5472 10.8951 14.4183 7.3921 14.4183Z" fill="#C9CDD2"/>
<path d="M6.09268 12.1183H9.08474C9.3459 12.1183 9.55031 11.9227 9.55031 11.6638C9.55031 11.4106 9.3459 11.2092 9.08474 11.2092H8.08547V7.18738C8.08547 6.85361 7.91518 6.62347 7.59723 6.62347H6.20059C5.93937 6.62347 5.73501 6.81914 5.73501 7.07226C5.73501 7.3312 5.93937 7.52681 6.20059 7.52681H7.09195V11.2092H6.09268C5.83153 11.2092 5.63281 11.4106 5.63281 11.6638C5.63281 11.9227 5.83153 12.1183 6.09268 12.1183ZM7.34177 5.31164C7.82431 5.31164 8.19907 4.92038 8.19907 4.44282C8.19907 3.95376 7.82431 3.5625 7.34177 3.5625C6.86481 3.5625 6.48441 3.95376 6.48441 4.44282C6.48441 4.92038 6.86481 5.31164 7.34177 5.31164Z" fill="#C9CDD2"/>
</svg>
