<svg width="25" height="24" viewBox="0 0 25 24" fill="none" xmlns="http://www.w3.org/2000/svg">
<path d="M11.8599 2.87305C12.0179 2.75018 12.231 2.73484 12.4028 2.82715L12.4731 2.87305L20.4731 9.09473C20.595 9.18946 20.6665 9.33597 20.6665 9.49023V20.001C20.6664 20.277 20.4426 20.501 20.1665 20.501H4.1665C3.89044 20.501 3.66664 20.277 3.6665 20.001V9.49023C3.6665 9.37447 3.70638 9.26297 3.77783 9.1748L3.85986 9.09473L11.8599 2.87305ZM19.6665 9.73438L19.4731 9.58398L12.4731 4.13965L12.1665 3.90137L11.8599 4.13965L4.85986 9.58398L4.6665 9.73438V19.501H19.6665V9.73438Z" fill="black" stroke="#C9CDD2"/>
</svg>
