<svg width="200" height="200" viewBox="0 0 200 200" fill="none" xmlns="http://www.w3.org/2000/svg">
<rect width="200" height="200" rx="36" fill="white"/>
<path d="M100 72.7891C137.657 72.7891 167 97.1507 167 125.895C167 154.638 137.657 179 100 179C62.3434 179 33 154.638 33 125.895C33.0001 97.1507 62.3434 72.7891 100 72.7891Z" fill="#FA6D46" stroke="#FA6D46" stroke-width="6"/>
<path d="M59.2086 60.5919L83.0212 20.9827" stroke="#FA6D46" stroke-width="6" stroke-linecap="round"/>
<path d="M99.5308 72.3307L83.4157 21.0176" stroke="#FA6D46" stroke-width="6" stroke-linecap="round"/>
<path d="M139.819 60.5919L116.006 20.9827" stroke="#FA6D46" stroke-width="6" stroke-linecap="round"/>
<path d="M99.4965 72.3307L115.612 21.0176" stroke="#FA6D46" stroke-width="6" stroke-linecap="round"/>
<path d="M99.5138 159.634C113.428 159.468 142.875 153.056 142.875 114.588" stroke="white" stroke-width="6" stroke-linecap="round"/>
<path d="M99.3376 159.634C85.4235 159.468 56.186 153.056 56.186 114.588" stroke="white" stroke-width="6" stroke-linecap="round"/>
<path d="M143.195 121.074C151.904 121.074 158.964 127.533 158.964 135.5L158.959 135.872C158.742 143.666 151.767 149.926 143.195 149.926L142.788 149.921C138.659 149.825 134.925 148.275 132.172 145.812C133.502 144.308 134.73 142.71 135.844 141.026C137.554 142.747 140.091 143.926 143.195 143.926C149.103 143.926 152.962 139.661 152.964 135.5C152.964 131.338 149.104 127.074 143.195 127.074C142.734 127.074 142.285 127.103 141.85 127.153C142.318 125.178 142.653 123.149 142.844 121.078C142.961 121.076 143.078 121.074 143.195 121.074Z" fill="white"/>
</svg>
