<svg width="25" height="24" viewBox="0 0 25 24" fill="none" xmlns="http://www.w3.org/2000/svg">
<path d="M12.8329 15C9.66278 15 6.84366 16.5306 5.04885 18.906C4.66256 19.4172 4.46942 19.6728 4.47574 20.0183C4.48062 20.2852 4.64822 20.6219 4.85823 20.7867C5.13005 21 5.50673 21 6.26009 21H19.4056C20.159 21 20.5357 21 20.8075 20.7867C21.0175 20.6219 21.1851 20.2852 21.19 20.0183C21.1963 19.6728 21.0032 19.4172 20.6169 18.906C18.8221 16.5306 16.0029 15 12.8329 15Z" fill="#FFF3EE"/>
<path d="M12.8329 12C15.3181 12 17.3329 9.98528 17.3329 7.5C17.3329 5.01472 15.3181 3 12.8329 3C10.3476 3 8.33286 5.01472 8.33286 7.5C8.33286 9.98528 10.3476 12 12.8329 12Z" fill="#FFF3EE"/>
<path d="M12.8329 15C9.66278 15 6.84366 16.5306 5.04885 18.906C4.66256 19.4172 4.46942 19.6728 4.47574 20.0183C4.48062 20.2852 4.64822 20.6219 4.85823 20.7867C5.13005 21 5.50673 21 6.26009 21H19.4056C20.159 21 20.5357 21 20.8075 20.7867C21.0175 20.6219 21.1851 20.2852 21.19 20.0183C21.1963 19.6728 21.0032 19.4172 20.6169 18.906C18.8221 16.5306 16.0029 15 12.8329 15Z" stroke="#FA6D46" stroke-width="2" stroke-linecap="round" stroke-linejoin="round"/>
<path d="M12.8329 12C15.3181 12 17.3329 9.98528 17.3329 7.5C17.3329 5.01472 15.3181 3 12.8329 3C10.3476 3 8.33286 5.01472 8.33286 7.5C8.33286 9.98528 10.3476 12 12.8329 12Z" stroke="#FA6D46" stroke-width="2" stroke-linecap="round" stroke-linejoin="round"/>
</svg>
