<svg width="24" height="24" viewBox="0 0 24 24" fill="none" xmlns="http://www.w3.org/2000/svg">
<g clip-path="url(#clip0_1511_24546)">
<path d="M11.9999 16C8.82977 16 6.01065 17.5306 4.21585 19.906C3.82956 20.4172 3.63641 20.6728 3.64273 21.0183C3.64761 21.2852 3.81521 21.6219 4.02522 21.7867C4.29704 22 4.67372 22 5.42708 22H18.5726C19.326 22 19.7027 22 19.9745 21.7867C20.1845 21.6219 20.3521 21.2852 20.357 21.0183C20.3633 20.6728 20.1701 20.4172 19.7839 19.906C17.9891 17.5306 15.1699 16 11.9999 16Z" stroke="#C9CDD2" stroke-width="2" stroke-linecap="round" stroke-linejoin="round"/>
<path d="M11.9999 12C14.4851 12 16.4999 9.98528 16.4999 7.5C16.4999 5.01472 14.4851 3 11.9999 3C9.51457 3 7.49985 5.01472 7.49985 7.5C7.49985 9.98528 9.51457 12 11.9999 12Z" stroke="#C9CDD2" stroke-width="2" stroke-linecap="round" stroke-linejoin="round"/>
</g>
<defs>
<clipPath id="clip0_1511_24546">
<rect width="24" height="24" fill="white"/>
</clipPath>
</defs>
</svg>
