<svg width="88" height="23" viewBox="0 0 88 23" fill="none" xmlns="http://www.w3.org/2000/svg">
<path d="M0.0400001 22V0.819999H3.4L11.74 13.81H10.03L18.34 0.819999H21.73V22H17.02V8.77L17.86 8.98L12.43 17.44H9.31L3.91 8.98L4.72 8.77V22H0.0400001ZM35.902 22.36C34.302 22.36 32.822 22.08 31.462 21.52C30.122 20.96 28.942 20.18 27.922 19.18C26.902 18.18 26.112 17.02 25.552 15.7C24.992 14.36 24.712 12.92 24.712 11.38C24.712 9.82 24.992 8.38 25.552 7.06C26.112 5.74 26.892 4.59 27.892 3.61C28.892 2.61 30.062 1.84 31.402 1.3C32.762 0.739998 34.242 0.459998 35.842 0.459998C37.422 0.459998 38.882 0.739998 40.222 1.3C41.582 1.84 42.762 2.61 43.762 3.61C44.782 4.59 45.572 5.75 46.132 7.09C46.692 8.41 46.972 9.85 46.972 11.41C46.972 12.95 46.692 14.39 46.132 15.73C45.572 17.05 44.792 18.21 43.792 19.21C42.792 20.19 41.612 20.96 40.252 21.52C38.912 22.08 37.462 22.36 35.902 22.36ZM35.842 18.07C37.102 18.07 38.202 17.79 39.142 17.23C40.102 16.67 40.842 15.89 41.362 14.89C41.882 13.87 42.142 12.7 42.142 11.38C42.142 10.38 41.992 9.48 41.692 8.68C41.392 7.86 40.962 7.16 40.402 6.58C39.842 5.98 39.172 5.53 38.392 5.23C37.632 4.91 36.782 4.75 35.842 4.75C34.582 4.75 33.472 5.03 32.512 5.59C31.572 6.13 30.842 6.9 30.322 7.9C29.802 8.88 29.542 10.04 29.542 11.38C29.542 12.38 29.692 13.29 29.992 14.11C30.292 14.93 30.712 15.64 31.252 16.24C31.812 16.82 32.482 17.27 33.262 17.59C34.042 17.91 34.902 18.07 35.842 18.07ZM58.4819 22.33C56.7419 22.33 55.2019 21.96 53.8619 21.22C52.5419 20.48 51.5019 19.46 50.7419 18.16C50.0019 16.84 49.6319 15.34 49.6319 13.66V0.819999H54.3719V13.93C54.3719 14.77 54.5519 15.5 54.9119 16.12C55.2719 16.74 55.7619 17.22 56.3819 17.56C57.0219 17.88 57.7219 18.04 58.4819 18.04C59.2819 18.04 59.9819 17.88 60.5819 17.56C61.1819 17.22 61.6519 16.75 61.9919 16.15C62.3519 15.53 62.5319 14.8 62.5319 13.96V0.819999H67.2719V13.69C67.2719 15.37 66.9019 16.86 66.1619 18.16C65.4219 19.46 64.3919 20.48 63.0719 21.22C61.7519 21.96 60.2219 22.33 58.4819 22.33ZM74.6263 14.29V10.63H79.1863C79.7663 10.63 80.2963 10.51 80.7763 10.27C81.2563 10.03 81.6363 9.68 81.9163 9.22C82.1963 8.76 82.3363 8.2 82.3363 7.54C82.3363 6.9 82.1963 6.35 81.9163 5.89C81.6363 5.43 81.2563 5.08 80.7763 4.84C80.2963 4.6 79.7663 4.48 79.1863 4.48H74.6263V0.819999H79.8763C81.2163 0.819999 82.4263 1.09 83.5063 1.63C84.5863 2.17 85.4363 2.95 86.0563 3.97C86.6963 4.97 87.0163 6.16 87.0163 7.54C87.0163 8.92 86.6963 10.12 86.0563 11.14C85.4363 12.14 84.5863 12.92 83.5063 13.48C82.4263 14.02 81.2163 14.29 79.8763 14.29H74.6263ZM71.0263 22V0.819999H75.7363V22H71.0263Z" fill="#FA6D46"/>
</svg>
