<svg width="44" height="44" viewBox="0 0 44 44" fill="none" xmlns="http://www.w3.org/2000/svg">
<path d="M14.5625 22C14.5625 22.2818 14.4506 22.552 14.2513 22.7513C14.052 22.9506 13.7818 23.0625 13.5 23.0625C13.2182 23.0625 12.948 22.9506 12.7487 22.7513C12.5494 22.552 12.4375 22.2818 12.4375 22C12.4375 21.7182 12.5494 21.448 12.7487 21.2487C12.948 21.0494 13.2182 20.9375 13.5 20.9375C13.7818 20.9375 14.052 21.0494 14.2513 21.2487C14.4506 21.448 14.5625 21.7182 14.5625 22ZM23.0625 22C23.0625 22.2818 22.9506 22.552 22.7513 22.7513C22.552 22.9506 22.2818 23.0625 22 23.0625C21.7182 23.0625 21.448 22.9506 21.2487 22.7513C21.0494 22.552 20.9375 22.2818 20.9375 22C20.9375 21.7182 21.0494 21.448 21.2487 21.2487C21.448 21.0494 21.7182 20.9375 22 20.9375C22.2818 20.9375 22.552 21.0494 22.7513 21.2487C22.9506 21.448 23.0625 21.7182 23.0625 22ZM31.5625 22C31.5625 22.2818 31.4506 22.552 31.2513 22.7513C31.052 22.9506 30.7818 23.0625 30.5 23.0625C30.2182 23.0625 29.948 22.9506 29.7487 22.7513C29.5494 22.552 29.4375 22.2818 29.4375 22C29.4375 21.7182 29.5494 21.448 29.7487 21.2487C29.948 21.0494 30.2182 20.9375 30.5 20.9375C30.7818 20.9375 31.052 21.0494 31.2513 21.2487C31.4506 21.448 31.5625 21.7182 31.5625 22Z" fill="#494C51" stroke="#494C51" stroke-width="1.5" stroke-linecap="round" stroke-linejoin="round"/>
</svg>
