<svg width="34" height="34" viewBox="0 0 34 34" fill="none" xmlns="http://www.w3.org/2000/svg">
<path d="M9.5625 17C9.5625 17.2818 9.45056 17.552 9.2513 17.7513C9.05204 17.9506 8.78179 18.0625 8.5 18.0625C8.21821 18.0625 7.94796 17.9506 7.7487 17.7513C7.54944 17.552 7.4375 17.2818 7.4375 17C7.4375 16.7182 7.54944 16.448 7.7487 16.2487C7.94796 16.0494 8.21821 15.9375 8.5 15.9375C8.78179 15.9375 9.05204 16.0494 9.2513 16.2487C9.45056 16.448 9.5625 16.7182 9.5625 17ZM18.0625 17C18.0625 17.2818 17.9506 17.552 17.7513 17.7513C17.552 17.9506 17.2818 18.0625 17 18.0625C16.7182 18.0625 16.448 17.9506 16.2487 17.7513C16.0494 17.552 15.9375 17.2818 15.9375 17C15.9375 16.7182 16.0494 16.448 16.2487 16.2487C16.448 16.0494 16.7182 15.9375 17 15.9375C17.2818 15.9375 17.552 16.0494 17.7513 16.2487C17.9506 16.448 18.0625 16.7182 18.0625 17ZM26.5625 17C26.5625 17.2818 26.4506 17.552 26.2513 17.7513C26.052 17.9506 25.7818 18.0625 25.5 18.0625C25.2182 18.0625 24.948 17.9506 24.7487 17.7513C24.5494 17.552 24.4375 17.2818 24.4375 17C24.4375 16.7182 24.5494 16.448 24.7487 16.2487C24.948 16.0494 25.2182 15.9375 25.5 15.9375C25.7818 15.9375 26.052 16.0494 26.2513 16.2487C26.4506 16.448 26.5625 16.7182 26.5625 17Z" fill="#494C51" stroke="#494C51" stroke-width="1.5" stroke-linecap="round" stroke-linejoin="round"/>
</svg>
